<?xml version="1.0" encoding="UTF-8"?>
<svg width="26px" height="26px" viewBox="0 0 26 26" version="1.1" xmlns="http://www.w3.org/2000/svg" xmlns:xlink="http://www.w3.org/1999/xlink">
    <!-- Generator: Sketch 55 (78076) - https://sketchapp.com -->
    <title>Group Copy 4</title>
    <desc>Created with Sketch.</desc>
    <g id="Page-1" stroke="none" stroke-width="1" fill="none" fill-rule="evenodd">
        <g id="LP-Video-Game" transform="translate(-335.000000, -17.000000)" fill="#FE1D00">
            <g id="New-Proto-Header-Mobile">
                <g id="Group-Copy-4" transform="translate(326.000000, 8.000000)">
                    <g id="icn/carrito" transform="translate(8.000000, 8.000000)">
                        <path d="M9.1,21.35 C10.4530976,21.35 11.55,22.4469024 11.55,23.8 C11.55,25.1530976 10.4530976,26.25 9.1,26.25 C7.74690236,26.25 6.65,25.1530976 6.65,23.8 C6.65,22.4469024 7.74690236,21.35 9.1,21.35 Z M26.25,5.425 L21.5833333,14.1458333 C21.2016982,14.8863321 20.4388893,15.352118 19.6058333,15.3533333 L10.4475,15.3533333 L9.345,17.4591667 L9.345,17.5816667 C9.35858889,17.7099024 9.46147411,17.810338 9.59,17.8208333 L22.575,17.8208333 C23.2515488,17.8208333 23.8,18.3692845 23.8,19.0458333 C23.8,19.7223822 23.2515488,20.2708333 22.575,20.2708333 L9.1,20.2708333 C7.74690236,20.2708333 6.65,19.173931 6.65,17.8208333 C6.67398464,17.4068518 6.75647013,16.9983522 6.895,16.6075 L8.61,13.6325 L4.2,4.2 L2.975,4.2 C2.29845118,4.2 1.75,3.65154882 1.75,2.975 C1.75,2.29845118 2.29845118,1.75 2.975,1.75 L4.99333333,1.75 C5.48599282,1.74997593 5.93120504,2.04372419 6.125,2.49666667 L6.895,4.2 L25.025,4.2 C25.7015488,4.2 26.25,4.74845118 26.25,5.425 Z M20.86,21.35 L20.8833333,21.35 C21.5331137,21.35 22.1562808,21.6081243 22.6157449,22.0675884 C23.0752091,22.5270525 23.3333333,23.1502196 23.3333333,23.8 C23.3332721,25.1500467 22.2410772,26.2456317 20.8910371,26.2498768 C19.5409971,26.2541219 18.4419339,25.1654272 18.4333825,23.8154075 C18.4248311,22.4653879 19.5100145,21.3628576 20.86,21.35 Z" id="carrito"></path>
                    </g>
                </g>
            </g>
        </g>
    </g>
</svg>