<?xml version="1.0" encoding="UTF-8"?>
<svg width="40px" height="22px" viewBox="0 0 40 22" version="1.1" xmlns="http://www.w3.org/2000/svg" xmlns:xlink="http://www.w3.org/1999/xlink">
    <!-- Generator: Sketch 55 (78076) - https://sketchapp.com -->
    <title>Group Copy 3</title>
    <desc>Created with Sketch.</desc>
    <g id="Page-1" stroke="none" stroke-width="1" fill="none" fill-rule="evenodd">
        <g id="LP-Video-Game" transform="translate(-279.000000, -19.000000)" fill="#FE1D00" fill-rule="nonzero">
            <g id="New-Proto-Header-Mobile">
                <g id="Group-Copy-3" transform="translate(277.000000, 8.000000)">
                    <path d="M5.8955,21.132 C5.44083106,21.132 5.01550198,21.0513341 4.6195,20.89 C4.22349802,20.7286659 3.88066811,20.4903349 3.591,20.175 C3.30133188,19.8596651 3.07216751,19.4710023 2.9035,19.009 C2.73483249,18.5469977 2.6505,18.019003 2.6505,17.425 C2.6505,16.8383304 2.7366658,16.312169 2.909,15.8465 C3.08133419,15.380831 3.31599851,14.9866683 3.613,14.664 C3.91000148,14.3413317 4.25833133,14.0956675 4.658,13.927 C5.05766866,13.7583325 5.48483106,13.674 5.9395,13.674 C6.39416894,13.674 6.79749824,13.7656658 7.1495,13.949 C7.50150176,14.1323342 7.79116553,14.3449988 8.0185,14.587 L7.3365,15.412 C7.14583238,15.2213324 6.9405011,15.0691672 6.7205,14.9555 C6.5004989,14.8418328 6.25116806,14.785 5.9725,14.785 C5.6791652,14.785 5.40966789,14.8454994 5.164,14.9665 C4.9183321,15.0875006 4.70566756,15.2598322 4.526,15.4835 C4.34633243,15.7071678 4.20700049,15.9803317 4.108,16.303 C4.0089995,16.6256683 3.9595,16.9886646 3.9595,17.392 C3.9595,18.2133374 4.13733155,18.856831 4.493,19.3225 C4.84866844,19.788169 5.33083029,20.021 5.9395,20.021 C6.26216828,20.021 6.54816542,19.9531673 6.7975,19.8175 C7.04683458,19.6818327 7.27416564,19.5040011 7.4795,19.284 L8.1615,20.087 C7.8681652,20.424335 7.53266855,20.6828324 7.155,20.8625 C6.77733144,21.0421676 6.35750231,21.132 5.8955,21.132 Z M9.0605,21 L9.0605,13.806 L11.4915,13.806 C11.8655019,13.806 12.2138317,13.8426663 12.5365,13.916 C12.8591683,13.9893337 13.1378322,14.1084992 13.3725,14.2735 C13.6071678,14.4385008 13.7923327,14.6566653 13.928,14.928 C14.0636673,15.1993347 14.1315,15.5366647 14.1315,15.94 C14.1315,16.4900027 14.0013346,16.933665 13.741,17.271 C13.4806654,17.608335 13.1341688,17.8503326 12.7015,17.997 L14.4175,21 L12.9875,21 L11.4365,18.184 L10.3365,18.184 L10.3365,21 L9.0605,21 Z M10.3365,17.172 L11.3595,17.172 C11.8508358,17.172 12.2266654,17.0693344 12.487,16.864 C12.7473346,16.6586656 12.8775,16.3506687 12.8775,15.94 C12.8775,15.5219979 12.7473346,15.2323341 12.487,15.071 C12.2266654,14.9096659 11.8508358,14.829 11.3595,14.829 L10.3365,14.829 L10.3365,17.172 Z M15.2725,21 L15.2725,13.806 L19.6065,13.806 L19.6065,14.884 L16.5485,14.884 L16.5485,16.721 L19.1335,16.721 L19.1335,17.799 L16.5485,17.799 L16.5485,19.922 L19.7165,19.922 L19.7165,21 L15.2725,21 Z M17.3625,13.432 L16.8015,12.794 L18.5285,11.309 L19.2105,12.145 L17.3625,13.432 Z M20.8905,21 L20.8905,13.806 L22.8155,13.806 C23.9155055,13.806 24.7734969,14.102997 25.3895,14.697 C26.0055031,15.291003 26.3135,16.1819941 26.3135,17.37 C26.3135,17.964003 26.2346675,18.4883311 26.077,18.943 C25.9193325,19.3976689 25.6920015,19.7771651 25.395,20.0815 C25.0979985,20.3858349 24.7386688,20.6149992 24.317,20.769 C23.8953312,20.9230008 23.416836,21 22.8815,21 L20.8905,21 Z M22.1665,19.966 L22.7275,19.966 C23.460837,19.966 24.0236647,19.7551688 24.416,19.3335 C24.8083353,18.9118312 25.0045,18.2573378 25.0045,17.37 C25.0045,16.4899956 24.806502,15.8483353 24.4105,15.445 C24.014498,15.0416647 23.4535036,14.84 22.7275,14.84 L22.1665,14.84 L22.1665,19.966 Z M27.4655,21 L27.4655,13.806 L28.7415,13.806 L28.7415,21 L27.4655,21 Z M31.7195,21 L31.7195,14.884 L29.6405,14.884 L29.6405,13.806 L35.0745,13.806 L35.0745,14.884 L32.9955,14.884 L32.9955,21 L31.7195,21 Z M38.4815,21.132 C38.0121643,21.132 37.5831686,21.0458342 37.1945,20.8735 C36.8058314,20.7011658 36.4721681,20.451835 36.1935,20.1255 C35.9148319,19.799165 35.6985008,19.4050023 35.5445,18.943 C35.3904992,18.4809977 35.3135,17.9566696 35.3135,17.37 C35.3135,16.7906638 35.3904992,16.2718356 35.5445,15.8135 C35.6985008,15.3551644 35.9148319,14.9683349 36.1935,14.653 C36.4721681,14.3376651 36.8058314,14.0956675 37.1945,13.927 C37.5831686,13.7583325 38.0121643,13.674 38.4815,13.674 C38.9508357,13.674 39.3798314,13.7583325 39.7685,13.927 C40.1571686,14.0956675 40.4926653,14.3376651 40.775,14.653 C41.0573347,14.9683349 41.2754992,15.3551644 41.4295,15.8135 C41.5835008,16.2718356 41.6605,16.7906638 41.6605,17.37 C41.6605,17.9566696 41.5835008,18.4809977 41.4295,18.943 C41.2754992,19.4050023 41.0573347,19.799165 40.775,20.1255 C40.4926653,20.451835 40.1571686,20.7011658 39.7685,20.8735 C39.3798314,21.0458342 38.9508357,21.132 38.4815,21.132 Z M38.4815,20.021 C38.7675014,20.021 39.0241655,19.9586673 39.2515,19.834 C39.4788345,19.7093327 39.6731659,19.5315012 39.8345,19.3005 C39.9958341,19.0694988 40.1204996,18.790835 40.2085,18.4645 C40.2965004,18.138165 40.3405,17.7733353 40.3405,17.37 C40.3405,16.5633293 40.1736683,15.9308356 39.84,15.4725 C39.5063317,15.0141644 39.0535029,14.785 38.4815,14.785 C37.9094971,14.785 37.4566683,15.0141644 37.123,15.4725 C36.7893317,15.9308356 36.6225,16.5633293 36.6225,17.37 C36.6225,17.7733353 36.6664996,18.138165 36.7545,18.4645 C36.8425004,18.790835 36.9671659,19.0694988 37.1285,19.3005 C37.2898341,19.5315012 37.4841655,19.7093327 37.7115,19.834 C37.9388345,19.9586673 38.1954986,20.021 38.4815,20.021 Z M6.054,32.144 C5.62999788,32.144 5.23400184,32.0740007 4.866,31.934 C4.49799816,31.7939993 4.17800136,31.5900013 3.906,31.322 C3.63399864,31.0539987 3.42200076,30.7280019 3.27,30.344 C3.11799924,29.9599981 3.042,29.5200025 3.042,29.024 C3.042,28.5439976 3.1219992,28.1100019 3.282,27.722 C3.4420008,27.3339981 3.6519987,27.0060013 3.912,26.738 C4.1720013,26.4699987 4.46999832,26.2640007 4.806,26.12 C5.14200168,25.9759993 5.4899982,25.904 5.85,25.904 C6.27400212,25.904 6.64399842,25.9759993 6.96,26.12 C7.27600158,26.2640007 7.53999894,26.4639987 7.752,26.72 C7.96400106,26.9760013 8.12199948,27.2779983 8.226,27.626 C8.33000052,27.9740017 8.382,28.351998 8.382,28.76 C8.382,28.9200008 8.37400008,29.0719993 8.358,29.216 C8.34199992,29.3600007 8.32600008,29.4679996 8.31,29.54 L4.746,29.54 C4.8260004,29.9720022 5.00399862,30.289999 5.28,30.494 C5.55600138,30.698001 5.893998,30.8 6.294,30.8 C6.71800212,30.8 7.14599784,30.6680013 7.578,30.404 L8.166,31.472 C7.86199848,31.680001 7.52400186,31.8439994 7.152,31.964 C6.77999814,32.0840006 6.4140018,32.144 6.054,32.144 Z M4.734,28.376 L6.882,28.376 C6.882,28.0399983 6.80600076,27.768001 6.654,27.56 C6.50199924,27.351999 6.2460018,27.248 5.886,27.248 C5.6059986,27.248 5.36000106,27.3399991 5.148,27.524 C4.93599894,27.7080009 4.79800032,27.9919981 4.734,28.376 Z M11.426,32.144 C11.1219985,32.144 10.866001,32.0960005 10.658,32 C10.449999,31.9039995 10.2840006,31.7700009 10.16,31.598 C10.0359994,31.4259991 9.94600028,31.2180012 9.89,30.974 C9.83399972,30.7299988 9.806,30.4560015 9.806,30.152 L9.806,23.588 L11.57,23.588 L11.57,30.224 C11.57,30.4080009 11.6039997,30.5359996 11.672,30.608 C11.7400003,30.6800004 11.8099996,30.716 11.882,30.716 L11.984,30.716 C12.0120001,30.716 12.0499998,30.7080001 12.098,30.692 L12.314,32 C12.2179995,32.0400002 12.0960007,32.0739999 11.948,32.102 C11.7999993,32.1300001 11.626001,32.144 11.426,32.144 Z M16.102,32.144 C15.6779979,32.144 15.2820018,32.0740007 14.914,31.934 C14.5459982,31.7939993 14.2260014,31.5900013 13.954,31.322 C13.6819986,31.0539987 13.4700008,30.7280019 13.318,30.344 C13.1659992,29.9599981 13.09,29.5200025 13.09,29.024 C13.09,28.5439976 13.1699992,28.1100019 13.33,27.722 C13.4900008,27.3339981 13.6999987,27.0060013 13.96,26.738 C14.2200013,26.4699987 14.5179983,26.2640007 14.854,26.12 C15.1900017,25.9759993 15.5379982,25.904 15.898,25.904 C16.3220021,25.904 16.6919984,25.9759993 17.008,26.12 C17.3240016,26.2640007 17.5879989,26.4639987 17.8,26.72 C18.0120011,26.9760013 18.1699995,27.2779983 18.274,27.626 C18.3780005,27.9740017 18.43,28.351998 18.43,28.76 C18.43,28.9200008 18.4220001,29.0719993 18.406,29.216 C18.3899999,29.3600007 18.3740001,29.4679996 18.358,29.54 L14.794,29.54 C14.8740004,29.9720022 15.0519986,30.289999 15.328,30.494 C15.6040014,30.698001 15.941998,30.8 16.342,30.8 C16.7660021,30.8 17.1939978,30.6680013 17.626,30.404 L18.214,31.472 C17.9099985,31.680001 17.5720019,31.8439994 17.2,31.964 C16.8279981,32.0840006 16.4620018,32.144 16.102,32.144 Z M14.782,28.376 L16.93,28.376 C16.93,28.0399983 16.8540008,27.768001 16.702,27.56 C16.5499992,27.351999 16.2940018,27.248 15.934,27.248 C15.6539986,27.248 15.4080011,27.3399991 15.196,27.524 C14.9839989,27.7080009 14.8460003,27.9919981 14.782,28.376 Z M19.854,32 L19.854,23.588 L21.57,23.588 L21.57,28.412 L21.618,28.412 L23.502,26.048 L25.422,26.048 L23.334,28.496 L25.578,32 L23.67,32 L22.326,29.684 L21.57,30.536 L21.57,32 L19.854,32 Z M28.502,32.144 C28.1339982,32.144 27.8200013,32.0880006 27.56,31.976 C27.2999987,31.8639994 27.0880008,31.708001 26.924,31.508 C26.7599992,31.307999 26.6400004,31.0660014 26.564,30.782 C26.4879996,30.4979986 26.45,30.1840017 26.45,29.84 L26.45,27.428 L25.634,27.428 L25.634,26.12 L26.546,26.048 L26.75,24.464 L28.214,24.464 L28.214,26.048 L29.642,26.048 L29.642,27.428 L28.214,27.428 L28.214,29.816 C28.214,30.1520017 28.2839993,30.3939993 28.424,30.542 C28.5640007,30.6900007 28.7499988,30.764 28.982,30.764 C29.0780005,30.764 29.1759995,30.7520001 29.276,30.728 C29.3760005,30.7039999 29.4659996,30.6760002 29.546,30.644 L29.822,31.928 C29.6619992,31.9760002 29.4740011,32.0239998 29.258,32.072 C29.0419989,32.1200002 28.7900014,32.144 28.502,32.144 Z M31.006,32 L31.006,26.048 L32.446,26.048 L32.566,27.092 L32.614,27.092 C32.8300011,26.683998 33.0899985,26.384001 33.394,26.192 C33.6980015,25.999999 34.0019985,25.904 34.306,25.904 C34.4740008,25.904 34.6119995,25.9139999 34.72,25.934 C34.8280005,25.9540001 34.9259996,25.9839998 35.014,26.024 L34.726,27.548 C34.6139994,27.5159998 34.5100005,27.4920001 34.414,27.476 C34.3179995,27.4599999 34.2060006,27.452 34.078,27.452 C33.8539989,27.452 33.6200012,27.5319992 33.376,27.692 C33.1319988,27.8520008 32.9300008,28.135998 32.77,28.544 L32.77,32 L31.006,32 Z M37.146,32.144 C36.8739986,32.144 36.6280011,32.0980005 36.408,32.006 C36.1879989,31.9139995 36.0020008,31.7860008 35.85,31.622 C35.6979992,31.4579992 35.5800004,31.2680011 35.496,31.052 C35.4119996,30.8359989 35.37,30.6000013 35.37,30.344 C35.37,29.7199969 35.6339974,29.2320018 36.162,28.88 C36.6900026,28.5279982 37.5419941,28.2920006 38.718,28.172 C38.7019999,27.9079987 38.6240007,27.6980008 38.484,27.542 C38.3439993,27.3859992 38.1100016,27.308 37.782,27.308 C37.5259987,27.308 37.2720013,27.3559995 37.02,27.452 C36.7679987,27.5480005 36.4980014,27.6799992 36.21,27.848 L35.574,26.684 C35.9580019,26.4519988 36.3599979,26.2640007 36.78,26.12 C37.2000021,25.9759993 37.6459976,25.904 38.118,25.904 C38.8860038,25.904 39.471998,26.1219978 39.876,26.558 C40.280002,26.9940022 40.482,27.6719954 40.482,28.592 L40.482,32 L39.042,32 L38.922,31.388 L38.874,31.388 C38.6179987,31.6120011 38.3500014,31.7939993 38.07,31.934 C37.7899986,32.0740007 37.4820017,32.144 37.146,32.144 Z M37.746,30.776 C37.946001,30.776 38.1179993,30.7320004 38.262,30.644 C38.4060007,30.5559996 38.5579992,30.4320008 38.718,30.272 L38.718,29.228 C38.0939969,29.3160004 37.6620012,29.4439992 37.422,29.612 C37.1819988,29.7800008 37.062,29.9799988 37.062,30.212 C37.062,30.404001 37.1239994,30.5459995 37.248,30.638 C37.3720006,30.7300005 37.537999,30.776 37.746,30.776 Z" id="CRÉDITOelektra"></path>
                </g>
            </g>
        </g>
    </g>
</svg>