<?xml version="1.0" encoding="UTF-8"?>
<svg width="25px" height="23px" viewBox="0 0 25 23" version="1.1" xmlns="http://www.w3.org/2000/svg" xmlns:xlink="http://www.w3.org/1999/xlink">
    <!-- Generator: Sketch 55 (78076) - https://sketchapp.com -->
    <title>Group</title>
    <desc>Created with Sketch.</desc>
    <g id="Page-1" stroke="none" stroke-width="1" fill="none" fill-rule="evenodd">
        <g id="LP-Video-Game" transform="translate(-14.000000, -18.000000)" fill="#FE1D00">
            <g id="New-Proto-Header-Mobile">
                <g id="Group" transform="translate(5.000000, 8.000000)">
                    <g id="icn/logo/elektra-symbol" transform="translate(8.000000, 8.000000)">
                        <path d="M25.1242498,11.410867 C25.1242498,11.410867 25.6269227,14.0585015 24.9894466,16.5145173 C24.9894466,16.5145173 23.2034274,18.8798749 20.2580017,18.8798749 C17.3980007,18.8798749 14.9127824,17.7677654 14.0249575,14.0883775 C13.4329096,13.9982343 11.9194595,13.8596714 10.8573287,14.5653638 C9.69199679,15.3411104 8.80515948,16.6973793 9.45004229,18.8469082 C10.0272766,20.7703065 11.5851673,21.2308095 11.5851673,21.2308095 L10.4267484,24.75 C10.4267484,24.75 7.9785639,23.8805045 6.25772424,22.0766103 C6.25772424,22.0766103 5.18719902,19.2801107 6.65966498,16.6195986 C8.08867789,14.0378973 10.2519486,12.3499016 13.743994,13.3806246 C14.1168014,12.8861248 14.982406,11.5932138 14.9271021,10.286395 C14.8663666,8.84616419 14.1829686,7.36730063 12.0764831,6.87486121 C10.1912131,6.4354775 9.02884394,7.61145992 9.02884394,7.61145992 L6.68781071,4.80671867 C6.68781071,4.80671867 8.63430997,3.02909479 10.9911443,2.37697313 C10.9911443,2.37697313 13.8481826,2.80605476 15.3211423,5.46862731 C16.7491676,8.047753 17.0691401,10.8447677 14.4718326,13.4826152 C14.6900855,14.0579864 15.3320056,15.5059437 16.4553657,16.1147966 C17.6809394,16.7808261 19.2506809,16.9034209 20.7117898,15.244786 C22.0188379,13.7623167 21.6243039,12.124286 21.6243039,12.124286 L25.1242498,11.410867 Z M10.8447372,9.81399309 C10.8447372,9.81399309 5.56469742,8.34749202 5.49161729,13.4480518 L3.78262846,15.341574 L1.6875,14.1006885 L2.88542167,12.7037265 L3.42068428,12.081996 C3.42068428,12.081996 3.4587057,10.6536126 3.98952425,9.79390403 C4.45368186,9.03979178 5.51334381,7.649011 8.13583432,8.0363692 C9.92827276,8.30010245 10.8447372,9.81399309 10.8447372,9.81399309 Z M18.9181663,12.666433 C18.9181663,12.666433 22.7775875,8.62853275 18.5799238,6.01283467 L17.8604795,3.52179176 L19.9388193,2.25 L20.5002525,4.0301994 L20.7486262,4.82345955 C20.7486262,4.82345955 21.9149456,5.57293586 22.3642897,6.48260952 C22.7568485,7.2794754 23.3819799,8.93244411 21.7495277,11.1087585 C20.6350557,12.5948335 18.9181663,12.666433 18.9181663,12.666433 Z M18.1837603,21.495676 L20.6107121,22.0916513 L20.6284883,24.6038135 L18.8696273,24.2210912 L18.0854972,24.0485314 C18.0854972,24.0485314 16.8806625,24.7279535 15.9004999,24.6790187 C15.044771,24.6352348 13.3594838,24.3745922 12.368458,21.8109196 C11.6914792,20.0605963 12.4909166,18.4756213 12.4909166,18.4756213 C12.4909166,18.4756213 13.9130165,23.9784772 18.1837603,21.495676 Z" id="elektra-symbol"></path>
                    </g>
                </g>
            </g>
        </g>
    </g>
</svg>